
<svg display="none" xmlns="http://www.w3.org/2000/svg">

	<symbol id="delivery" viewBox="0 0 640 476">
		<path fill-rule="evenodd" clip-rule="evenodd" d="M33.8361 0.553855C20.2281 2.04785 8.60214 10.5569 2.64414 23.3829L0.336137 28.3499V200.35V372.35L2.94814 377.85C8.67814 389.912 19.6231 397.961 32.9111 399.881C36.4451 400.392 47.2651 400.819 56.9571 400.83L74.5781 400.85L75.2801 407.983C76.5241 420.601 81.4941 433.537 89.2541 444.35L92.8431 449.35L51.0891 449.85C5.40014 450.397 5.52514 450.381 1.81114 456.39C-2.05186 462.64 0.52114 471.209 7.09514 473.982C11.9411 476.027 627.731 476.027 632.577 473.982C639.151 471.209 641.724 462.64 637.861 456.39C634.605 451.121 632.072 450.46 613.586 450.052C604.374 449.848 596.836 449.498 596.836 449.274C596.836 449.05 598.443 446.762 600.408 444.188C608.146 434.05 613.446 419.719 614.497 406.087L615.104 398.224L620.512 395.392C626.971 392.011 633.085 385.384 636.698 377.85L639.336 372.35L639.625 328.748L639.915 285.146L603.932 213.153C572.236 149.736 567.386 140.604 563.214 136.491C557.179 130.541 550.187 127.153 541.336 125.889C537.424 125.331 511.951 124.881 483.586 124.87L432.836 124.85L432.816 82.5999C432.805 59.3629 432.347 37.1999 431.797 33.3499C430.466 24.0279 426.989 17.2299 420.332 10.9349C413.781 4.73885 408.505 2.22685 399.228 0.885854C392.736 -0.0531456 42.2601 -0.371145 33.8361 0.553855ZM403.563 29.1229L406.336 31.8949L406.594 203.373L406.853 374.85L313.594 374.846L220.336 374.843L218.417 370.178C211.927 354.4 196.303 338.896 179.326 331.388C166.863 325.876 147.172 324.105 133.532 327.268C110.882 332.521 91.1991 348.248 82.2711 368.227L79.3361 374.796L56.5361 374.823C31.0811 374.853 29.3121 374.481 26.4711 368.493C25.4401 366.32 24.8361 362.453 24.8361 358.023V350.997L45.0861 350.674C76.1231 350.178 74.8361 351.837 74.8361 312.317C74.8361 273.844 76.2211 275.579 45.0861 275.048L24.8361 274.703V155.177C24.8361 46.7228 24.9871 35.3339 26.4671 32.2139C29.6921 25.4179 14.6131 25.8989 217.063 26.1359L400.791 26.3499L403.563 29.1229ZM183.336 76.3789C181.136 77.1709 179.26 77.8269 179.168 77.8349C179.075 77.8429 178.062 79.3658 176.918 81.2178C174.302 85.4508 174.263 90.1869 176.811 94.3099C180.701 100.603 176.919 100.321 261.836 100.654C304.461 100.821 341.787 100.665 344.783 100.307C349.133 99.7879 350.894 98.9919 353.533 96.3529C356.404 93.4819 356.836 92.3849 356.836 87.9659C356.836 81.6119 353.4 77.2199 347.336 75.8209C345.07 75.2979 309.527 74.9059 265.336 74.9179C199.975 74.9349 186.688 75.1709 183.336 76.3789ZM131.026 77.2029C127.619 79.0929 124.849 83.8679 124.849 87.8499C124.849 91.8319 127.619 96.6069 131.026 98.4969C132.296 99.2019 135.136 99.7789 137.336 99.7789C142.216 99.7789 145.338 98.1529 147.89 94.2829C151.532 88.7579 149.463 80.4309 143.646 77.2029C140.677 75.5549 133.995 75.5549 131.026 77.2029ZM233.336 126.379C231.136 127.171 229.26 127.827 229.168 127.835C229.075 127.843 228.062 129.366 226.918 131.218C224.302 135.451 224.263 140.187 226.811 144.31C230.61 150.457 229.323 150.32 286.836 150.659C315.711 150.829 341.787 150.673 344.783 150.313C349.129 149.789 350.896 148.99 353.533 146.353C356.404 143.482 356.836 142.385 356.836 137.966C356.836 131.612 353.4 127.22 347.336 125.821C345.136 125.313 319.486 124.907 290.336 124.918C246.743 124.934 236.626 125.194 233.336 126.379ZM544.246 152.958C545.72 154.118 549.149 159.496 551.866 164.911L556.807 174.755L511.526 175.053C461.788 175.379 463.278 175.194 459.1 181.57C457.47 184.057 457.336 188.337 457.336 237.85C457.336 296.889 457.075 294.339 463.555 298.586C466.055 300.225 471.526 300.37 540.579 300.631L614.912 300.911L614.624 334.277C614.355 365.457 614.211 367.78 612.431 369.746C611.383 370.903 610.235 371.85 609.88 371.85C609.525 371.85 608.2 369.713 606.935 367.1C599.439 351.617 584.586 337.713 568.55 331.166C550.425 323.767 528.69 323.835 510.844 331.347C493.568 338.618 478.819 352.917 471.745 369.252L469.336 374.816L451.086 374.833L432.836 374.85V262.85V150.85H487.201C540.981 150.85 541.595 150.873 544.246 152.958ZM588.336 237.85L606.841 274.85H544.839H482.836V237.85V200.85H526.333H569.831L588.336 237.85ZM49.8361 312.85V324.85H37.3361H24.8361V312.85V300.85H37.3361H49.8361V312.85ZM163.112 352.334C186.685 358.474 202.894 383.391 199.13 407.703C196.177 426.782 181.241 443.644 163.112 448.366C155.821 450.265 143.851 450.265 136.56 448.366C112.871 442.196 96.7771 417.319 100.58 392.751C103.468 374.093 118.372 357.168 136.125 352.385C143.049 350.52 156.054 350.495 163.112 352.334ZM553.112 352.334C576.685 358.474 592.894 383.391 589.13 407.703C586.161 426.89 571.354 443.552 553.059 448.292C545.474 450.258 533.945 450.29 526.56 448.366C505.714 442.937 489.949 422.294 489.86 400.31C489.773 378.737 505.512 357.938 526.125 352.385C533.049 350.52 546.054 350.495 553.112 352.334ZM145.162 375.934C139.674 376.967 136.041 378.943 132.143 383.015C124.82 390.662 122.915 401.251 127.223 410.35C131.796 420.006 139.35 424.85 149.836 424.85C160.322 424.85 167.876 420.006 172.449 410.35C180.873 392.561 164.764 372.243 145.162 375.934ZM535.162 375.934C529.674 376.967 526.041 378.943 522.143 383.015C514.82 390.662 512.915 401.251 517.223 410.35C521.796 420.006 529.35 424.85 539.836 424.85C550.322 424.85 557.876 420.006 562.449 410.35C570.873 392.561 554.764 372.243 535.162 375.934ZM465.28 407.983C466.524 420.6 471.493 433.533 479.253 444.35L482.841 449.35L345.175 449.604C269.459 449.743 207.327 449.675 207.104 449.452C206.882 449.229 208.337 446.901 210.339 444.278C217.833 434.461 223.131 420.776 224.392 407.983L225.094 400.85H344.836H464.578L465.28 407.983Z" fill="black"/>
  </symbol>

	<symbol id="favorites" viewBox="0 0 512 512">
		<path d="M352.92 80C288 80 256 144 256 144s-32-64-96.92-64c-52.76 0-94.54 44.14-95.08 96.81-1.1 109.33 86.73 187.08 183 252.42a16 16 0 0018 0c96.26-65.34 184.09-143.09 183-252.42-.54-52.67-42.32-96.81-95.08-96.81z" fill="none" stroke="currentColor" stroke-linecap="round" stroke-linejoin="round" stroke-width="32"/>
  </symbol>

	<symbol id="phone" viewBox="0 0 446 448">
		<path fill-rule="evenodd" clip-rule="evenodd" d="M77.4493 1.72619C67.6453 4.54819 60.5583 9.97819 39.6103 30.7162C16.9793 53.1202 12.5093 58.4822 7.04231 69.7872C-4.46269 93.5762 -1.78769 130.526 14.4563 172.234C29.2933 210.327 45.0573 238.287 72.0363 274.356C119.631 337.989 178.082 386.922 246.449 420.367C283.792 438.636 313.911 447.124 341.949 447.281C361.999 447.393 375.908 443.226 388.949 433.201C397.448 426.667 437.29 384.619 440.316 378.99C448.401 363.946 447.568 347.454 438.003 333.206C435.843 329.989 419.31 312.683 401.262 294.75C371.575 265.251 367.761 261.805 361.23 258.583C352.494 254.273 343.792 253.042 334.654 254.823C323.194 257.057 318.169 260.639 296.275 282.178L276.101 302.025L265.823 296.335C221.25 271.657 170.231 220.259 148.839 178.481L144.639 170.28L164.044 150.818C176.24 138.586 184.681 129.254 186.765 125.698C195.338 111.072 194.919 93.6672 185.659 79.7522C183.684 76.7842 167.079 59.4492 148.759 41.2292C113.602 6.26519 111.436 4.52019 99.2563 1.34819C91.9133 -0.564806 84.9893 -0.444807 77.4493 1.72619ZM97.8813 24.9102C101.067 26.3562 110.707 35.2732 132.178 56.6332C148.603 72.9752 163.672 88.7122 165.664 91.6032C168.433 95.6252 169.391 98.1402 169.736 102.297C170.474 111.2 168.407 114.113 143.989 138.569C120.273 162.321 119.901 162.875 121.377 172.154C122.126 176.858 133.514 199.28 140.097 209.013C152.791 227.779 169.364 247.163 189.58 266.888C212.874 289.617 237.509 307.935 261.326 320.238C273.049 326.293 277.863 327.188 284.231 324.495C286.001 323.747 296.989 313.684 308.65 302.133C333.638 277.379 337.423 275.042 347.985 277.851C351.96 278.908 356.096 282.671 385.729 312.193C407.17 333.554 419.71 346.796 420.979 349.418C423.54 354.708 423.527 362.051 420.947 367.29C417.968 373.339 375.768 415.745 369.374 419.115C350.693 428.962 318.559 426.055 281.195 411.138C227.133 389.554 171.224 351.195 129.085 306.774C85.0053 260.306 52.5433 210.075 34.4363 160.317C26.5823 138.734 23.8363 126.495 23.2263 110.356C22.6013 93.8172 23.5993 87.8382 28.6983 77.5932C31.8353 71.2912 35.0873 67.5542 53.8753 48.6602C76.8943 25.5112 80.4503 22.9002 88.9493 22.9002C91.4243 22.9002 95.4433 23.8052 97.8813 24.9102Z" fill="black"/>
  </symbol>

	<symbol id="cart" viewBox="0 0 448 394">
		<path fill-rule="evenodd" clip-rule="evenodd" d="M6.86773 1.827C-1.35727 6.238 -2.38027 16.994 4.80673 23.502C6.90673 25.403 8.80873 25.524 44.1067 26L81.1997 26.5L104.314 130.5C117.026 187.7 127.733 235.685 128.106 237.133C128.695 239.415 128.369 239.938 125.658 241.062C120.426 243.228 112.043 252.269 108.76 259.284C98.3507 281.529 110.997 308.07 134.659 313.64C137.765 314.371 146.156 315.005 153.306 315.05L166.306 315.132L161.057 316.545C153.286 318.638 148.112 321.599 142.605 327.105C127.488 342.223 127.556 366.846 142.758 382.048C151.623 390.912 165.202 395.388 176.457 393.155C193.938 389.687 206.219 377.429 208.995 360.678C212.322 340.602 199.989 322.038 179.701 316.583C174.876 315.285 183.658 315.132 262.806 315.132C342.524 315.132 350.763 315.278 345.83 316.603C334.772 319.575 325.864 327.092 320.499 337.979C317.55 343.962 317.306 345.227 317.306 354.5C317.306 363.773 317.551 365.039 320.501 371.032C335.221 400.932 376.229 401.156 391.306 371.417C394.099 365.908 394.306 364.741 394.306 354.5C394.306 344.259 394.099 343.092 391.306 337.583C385.804 326.73 375.072 318.249 364.306 316.245C361.374 315.699 363.998 315.367 374.135 315L387.964 314.5L391.385 310.765C394.331 307.548 394.806 306.331 394.806 302C394.806 297.668 394.331 296.453 391.383 293.235L387.96 289.5L264.133 289C167.993 288.612 139.82 288.222 138.134 287.256C132.091 283.797 129.554 276.44 132.362 270.522C135.969 262.922 124.944 263.558 262.762 263C382.007 262.517 386.403 262.434 389.107 260.602C390.648 259.557 392.561 257.44 393.359 255.897C395.419 251.914 447.806 68.212 447.806 64.972C447.806 61.64 444.059 55.94 440.776 54.279C438.831 53.295 403.858 53.026 276.164 53.015L114.023 53L113.485 50.75C113.19 49.513 111.07 39.95 108.774 29.5C106.478 19.05 103.675 8.833 102.544 6.795C98.8307 0.102998 98.0597 0 51.5197 0C13.4837 0 10.0097 0.142 6.86773 1.827ZM416.806 79.864C416.806 80.339 414.099 90.126 410.791 101.614C407.483 113.101 397.486 148.037 388.574 179.25L372.372 236H263.656C160.992 236 154.91 235.903 154.395 234.25C154.094 233.288 146.419 198.975 137.338 158C128.258 117.025 120.589 82.487 120.298 81.25L119.768 79H268.287C351.004 79 416.806 79.383 416.806 79.864ZM177.806 343.891C184.105 348.27 185.203 356.998 180.202 362.941C175.222 368.859 166.897 369.024 161.191 363.319C158.175 360.302 157.806 359.341 157.806 354.5C157.806 349.636 158.169 348.704 161.264 345.608C166.176 340.697 172.296 340.062 177.806 343.891ZM361.397 343.044C371.319 347.847 371.22 361.201 361.227 366.038C354.545 369.273 347.861 366.875 344.286 359.961C341.095 353.79 343.983 346.189 350.826 342.752C355.253 340.527 356.255 340.555 361.397 343.044Z" fill="black"/>
  </symbol>

	<symbol id="cart_02" viewBox="0 0 384 352">
		<path fill-rule="evenodd" clip-rule="evenodd" d="M10.0817 0.346009C8.82168 0.604009 6.25568 2.34901 4.37968 4.22401C-0.945321 9.55001 -1.47032 17.414 3.11068 23.238C6.87668 28.026 10.1297 28.664 30.7827 28.664C41.2177 28.664 49.9707 29.011 50.2327 29.435C50.4947 29.86 52.0907 36.047 53.7787 43.185C55.4677 50.324 61.5837 75.964 67.3707 100.164C82.4467 163.208 83.1767 166.274 90.3457 196.664C93.9137 211.789 97.5947 225.637 98.5237 227.438C99.4537 229.238 101.653 231.601 103.412 232.688C106.549 234.626 108.819 234.664 222.93 234.664H339.25L342.518 232.425C344.315 231.193 346.481 228.606 347.33 226.675C348.18 224.744 354.022 202.239 360.313 176.664C366.604 151.089 374.479 119.154 377.813 105.697C381.146 92.241 383.874 80.159 383.874 78.848C383.874 74.845 380.854 69.815 377.018 67.43L373.374 65.164L230.735 64.897L88.0957 64.631L87.6407 61.897C86.7227 56.389 75.7627 11.078 74.6887 8.35301C74.0797 6.80701 71.9947 4.33201 70.0577 2.85301L66.5337 0.16401L39.4537 0.0210102C24.5597 -0.0569898 11.3427 0.089009 10.0817 0.346009ZM350.39 96.59C350.037 98.199 343.798 123.512 336.526 152.84L323.304 206.164L222.728 206.419L122.152 206.674L121.054 201.419C120.145 197.072 109.692 153.131 98.3357 105.928C96.9817 100.298 95.8737 95.236 95.8737 94.678C95.8737 93.998 137.896 93.664 223.453 93.664H351.033L350.39 96.59ZM117.272 257.553C88.1817 265.881 74.2107 297.268 87.4797 324.479C102.193 354.648 142.103 360.44 165.191 335.756C184.59 315.017 181.118 280.787 158.007 264.923C145.02 256.008 131.324 253.531 117.272 257.553ZM291.986 257.245C268.879 263.459 253.014 286.87 256.597 309.466C258.842 323.629 264.659 333.544 275.567 341.803C291.129 353.584 313.216 354.362 329.793 343.713C346.707 332.847 355.247 311.47 350.3 292.38C343.558 266.36 317.183 250.468 291.986 257.245ZM137.62 286.202C145.491 289.491 149.314 295.903 148.675 304.742C148.03 313.658 143.227 319.507 134.673 321.795C120.246 325.654 106.981 311.145 112.272 297.292C116.248 286.882 127.482 281.967 137.62 286.202ZM314.662 287.905C323.273 293.604 325.503 306.541 319.233 314.424C315.622 318.963 308.709 322.672 303.912 322.642C299.121 322.612 292.852 319.614 289.669 315.832C281.774 306.449 284.502 292.116 295.221 286.665C300.953 283.749 309.175 284.274 314.662 287.905Z" fill="black"/>
  </symbol>

	<symbol id="wallet" viewBox="0 0 496 512">
		<path fill-rule="evenodd" clip-rule="evenodd" d="M273.614 1.16029C271.538 1.93529 268.482 3.63029 266.824 4.92729C265.165 6.22529 234.685 50.0373 199.091 102.287L134.375 197.287L116.082 197.56L97.7888 197.833L98.3318 194.56C98.6308 192.76 100.45 174.862 102.375 154.787C104.3 134.712 106.129 116.385 106.439 114.061C106.982 109.996 107.276 109.693 114.196 106.075C121.078 102.477 130.343 94.4463 134.492 88.4823L136.443 85.6773L165.903 88.6023C186.455 90.6433 196.014 91.2313 197.516 90.5473C202.428 88.3093 203.069 81.2473 198.622 78.3643C197.127 77.3953 186.533 75.9393 166.609 73.9653C133.468 70.6813 130.979 70.8153 126.047 76.1513C124.453 77.8763 120.82 81.8273 117.972 84.9323C114.338 88.8963 110.599 91.6493 105.421 94.1743C97.6448 97.9663 94.6328 100.862 93.0198 106.099C92.4808 107.853 90.1068 129.2 87.7458 153.537L83.4538 197.787H78.7338H74.0138L74.4698 194.537C74.7208 192.75 77.8479 161.434 81.4199 124.947C84.9909 88.4613 88.3679 57.7593 88.9239 56.7203C90.3899 53.9813 93.1708 52.7863 98.0718 52.7913C100.446 52.7933 127.055 55.2463 157.203 58.2423C195.28 62.0253 212.766 63.4043 214.471 62.7563C216.82 61.8623 218.888 58.3143 218.888 55.1763C218.888 51.6863 214.499 49.1313 207.346 48.4593C203.519 48.0993 177.438 45.5193 149.388 42.7263C121.338 39.9323 96.2748 37.8793 93.6918 38.1643C84.5608 39.1683 76.8178 45.6203 74.4318 54.2153C73.6578 57.0053 70.7278 83.1373 67.9208 112.287C65.1148 141.437 62.6008 166.3 62.3338 167.537C61.8698 169.694 61.4218 169.787 51.5278 169.787C35.3228 169.787 27.7418 173.06 22.2528 182.427C20.2518 185.842 19.4508 188.806 19.0878 194.143L18.6018 201.287L14.0238 204.287C11.5058 205.937 7.97385 209.229 6.17485 211.603C-0.490153 220.401 -0.169155 212.704 0.122845 356.843L0.387844 487.287L2.73985 492.489C5.71385 499.063 13.8449 506.836 20.3909 509.36C25.2678 511.241 30.4449 511.287 236.388 511.287H447.388L452.602 508.929C458.785 506.133 466.148 498.63 469.209 492.004C471.309 487.458 471.399 485.9 471.683 449.037L471.977 410.787L475.683 410.781C484.567 410.768 491.66 406.733 494.511 400.069C495.608 397.507 495.888 388.27 495.888 354.72C495.888 307.815 495.941 308.217 489.108 303.005C486.288 300.855 484.276 300.261 478.748 299.949L471.888 299.561V263.356C471.888 233.035 471.627 226.272 470.283 221.747C468.516 215.794 464.267 209.017 460.392 205.969C458.122 204.184 457.888 203.305 457.888 196.589C457.888 187.718 454.848 180.555 449.048 175.757C444.938 172.357 437.456 169.787 431.67 169.787H427.815L439.475 152.702C445.987 143.16 451.766 133.557 452.564 130.952C455.022 122.929 452.424 113.379 446.23 107.667C443.487 105.138 304.699 10.3023 294.241 3.81129C288.102 0.000294447 279.64 -1.08671 273.614 1.16029ZM301.329 26.0373C393.045 88.3153 435.23 117.406 436.898 119.527C440.342 123.905 439.474 126.583 430.138 140.394C425.326 147.513 414.638 163.321 406.388 175.522L391.388 197.706L385.662 197.747L379.935 197.787L392.256 179.537C399.878 168.246 404.837 159.893 405.26 157.631C405.952 153.926 405.449 152.012 400.828 140.787C399.028 136.413 398.525 133.108 398.373 124.643C398.212 115.659 397.842 113.448 396.001 110.47C394.39 107.864 383.202 99.7023 353.222 79.2663C330.893 64.0443 311.33 51.1403 309.749 50.5893C305.602 49.1433 299.334 50.1093 291.888 53.3413C286.251 55.7873 283.964 56.1893 274.665 56.3633C266.317 56.5183 263.121 56.9893 260.233 58.4873C257.108 60.1093 249.189 71.1753 209.88 128.85L163.236 197.287L157.456 197.59L151.676 197.893L153.621 195.09C154.691 193.548 182.018 153.362 214.348 105.787C246.678 58.2123 274.225 18.2743 275.564 17.0373C280.263 12.6953 283.183 13.7153 301.329 26.0373ZM345.388 91.5933L383.388 117.541L384.023 128.414C384.684 139.74 385.158 141.915 388.825 150.426L391.039 155.566L376.714 176.639L362.388 197.712L349.841 197.75L337.294 197.787L336.142 191.059C334.575 181.913 328.138 169.251 321.299 161.864C314.067 154.053 306.368 149.059 296.106 145.522C289.149 143.124 286.102 142.634 278.062 142.624C267.198 142.609 261.149 143.827 252.388 147.793C235.552 155.413 221.968 172.201 218.739 189.376C218.127 192.627 217.475 195.85 217.289 196.537C217.034 197.479 212.478 197.787 198.821 197.787H180.692L182.54 194.941C183.556 193.376 202.999 164.801 225.746 131.441L267.104 70.7873H276.444C283.654 70.7873 287.565 70.2173 293.586 68.2913C297.877 66.9183 302.039 65.3743 302.834 64.8603C303.662 64.3263 304.945 64.2943 305.834 64.7863C306.689 65.2583 324.488 77.3223 345.388 91.5933ZM286.002 157.792C303.086 160.981 318.101 175.82 321.663 193.037L322.646 197.787H277.221H231.797L232.477 194.037C236.92 169.532 261.115 153.148 286.002 157.792ZM60.5128 187.912C60.1688 189.631 59.8878 192.556 59.8878 194.412V197.787H46.8878H33.8878V194.21C33.8878 191.59 34.6698 189.851 36.8108 187.71C39.6778 184.843 39.9408 184.787 50.4358 184.787H61.1378L60.5128 187.912ZM439.229 186.841C442.055 189.064 444.833 196.374 443.306 197.57C442.801 197.965 434.868 198.145 425.676 197.971L408.964 197.653L413.176 191.241L417.388 184.829L427.003 184.808C435.207 184.79 437.001 185.088 439.229 186.841ZM446.388 214.677C455.082 218.69 456.888 222.848 456.888 238.852V250.787H235.888H14.8878V238.237C14.8878 229.378 15.3028 224.894 16.2988 222.987C18.3018 219.153 23.0998 214.841 26.4918 213.825C28.0848 213.349 122.313 212.93 235.888 212.895C434.614 212.833 442.539 212.9 446.388 214.677ZM456.888 282.787V299.787L419.138 299.802C376.965 299.818 373.596 300.204 361.894 306.353C350.324 312.433 340.79 323.417 335.913 336.287C333.078 343.767 332.058 359.06 333.869 366.919C338.339 386.31 353.177 402.066 372.888 408.35C377.63 409.862 383.799 410.164 417.638 410.542L456.888 410.98V427.884V444.787H277.043C98.0838 444.787 97.1888 444.797 95.3758 446.8C94.3738 447.907 93.5548 450.151 93.5548 451.787C93.5548 453.423 94.3738 455.667 95.3758 456.774C97.1888 458.777 98.0838 458.787 277.043 458.787H456.888L456.872 471.537C456.857 482.904 456.611 484.719 454.601 488.267C453.337 490.498 450.599 493.236 448.368 494.5L444.388 496.754L236.039 496.771C4.00885 496.789 23.7518 497.404 18.0818 489.978C15.5038 486.602 15.3738 485.857 15.0618 472.619L14.7368 458.787H35.8118C55.5548 458.787 57.0148 458.66 58.8878 456.787C59.9988 455.676 60.8878 453.454 60.8878 451.787C60.8878 450.12 59.9988 447.898 58.8878 446.787C57.0148 444.914 55.5548 444.787 35.8878 444.787H14.8878V355.287V265.787H235.888H456.888V282.787ZM479.306 314.394C480.712 314.934 480.888 319.483 480.888 355.394V395.787L432.138 395.763C403.622 395.748 381.607 395.327 379.097 394.748C363.39 391.125 350.785 377.811 347.818 361.709C343.781 339.799 359.973 317.743 382.224 314.844C389.433 313.904 476.974 313.499 479.306 314.394ZM380.882 326.721C375.778 328.274 372.029 330.836 367.513 335.859C359.701 344.548 357.886 356.211 362.664 367.013C371.254 386.432 397.097 390.471 411.347 374.621C417.074 368.252 419.292 361.667 418.663 352.903C417.86 341.721 412.599 333.797 402.688 328.845C397.623 326.314 395.434 325.802 389.978 325.873C386.354 325.92 382.26 326.302 380.882 326.721ZM396.973 341.832C400.967 343.97 404.273 349.776 404.273 354.654C404.273 363.172 398.951 368.9 390.458 369.525C374.53 370.697 368.733 349.396 382.962 341.98C387.504 339.613 392.723 339.558 396.973 341.832Z" fill="black"/>
  </symbol>

	<symbol id="search" viewBox="0 0 384 385">
		<path fill-rule="evenodd" clip-rule="evenodd" d="M133.834 1.00475C100.044 4.89275 66.8027 21.5088 42.7807 46.5188C17.8427 72.4828 3.84069 103.211 0.587693 139.113C-2.26031 170.532 5.3197 203.189 21.6557 229.883C42.5207 263.978 73.7017 287.701 111.578 298.299C149.446 308.895 190.196 303.999 225.334 284.631C230.284 281.903 236.695 277.905 239.581 275.746C242.467 273.588 245.547 271.546 246.426 271.209C247.584 270.765 263.486 286.037 304.179 326.672C365.069 387.476 362.301 385.144 371.535 383.411C376.457 382.488 382.439 376.506 383.362 371.584C385.095 362.349 387.436 365.127 326.517 304.122C270.816 248.342 270.349 247.84 271.835 245.427C272.659 244.088 275.387 239.931 277.896 236.188C302.631 199.289 310.059 153.83 298.25 111.627C287.651 73.7458 263.803 42.4098 229.834 21.7288C201.544 4.50476 167.427 -2.86025 133.834 1.00475ZM175.834 34.4048C223.677 44.8048 259.383 80.8288 269.48 128.883C271.924 140.515 271.924 163.251 269.48 174.883C264.382 199.146 253.605 219.168 236.362 236.411C219.119 253.654 199.097 264.431 174.834 269.529C163.202 271.973 140.466 271.973 128.834 269.529C96.9997 262.84 69.6807 244.613 52.4717 218.58C38.2267 197.031 32.3397 177.527 32.3397 151.883C32.3397 136.211 33.8797 126.518 38.5337 112.883C51.0687 76.1628 83.2507 45.9668 120.184 36.2718C137.833 31.6388 159.729 30.9038 175.834 34.4048Z" fill="black"/>
  </symbol>

	<symbol id="chevron_bottom" viewBox="0 0 512 512">
		<path fill="none" stroke="currentColor" stroke-linecap="round" stroke-linejoin="round" stroke-width="48" d="M112 184l144 144 144-144"/>
  </symbol>

	<symbol id="logo" viewBox="0 0 444 98">
		<path fill-rule="evenodd" clip-rule="evenodd" d="M6.40132 4.826C6.40132 8.977 6.00132 9.947 3.53632 11.769C1.96032 12.934 0.427318 14.819 0.129318 15.957C-0.402682 17.995 -0.125681 18.027 17.9953 18.027H36.4013V28.119C36.4013 36.697 36.1013 38.593 34.4013 40.754C33.3013 42.153 32.4013 44.525 32.4013 46.027C32.4013 47.529 33.3013 49.901 34.4013 51.3C36.2333 53.628 36.4013 55.357 36.4013 71.828C36.4013 85.302 36.0873 89.929 35.1513 90.277C34.4643 90.532 29.8513 90.603 24.9013 90.434C13.9643 90.061 12.1833 90.484 12.5933 93.363C12.8993 95.514 13.0683 95.529 40.1763 95.793C64.2943 96.028 67.5223 95.876 68.0593 94.476C69.2403 91.398 66.5903 90.528 55.8893 90.482C50.1623 90.457 45.1953 90.154 44.8503 89.81C44.5063 89.465 44.1583 81.386 44.0773 71.855C43.9393 55.507 44.0573 54.329 46.1623 51.027C48.9383 46.673 48.9843 44.038 46.3443 40.681C44.1203 37.854 43.2423 30.617 44.1483 22.58L44.6613 18.027H63.0573H81.4523L79.8413 14.911C78.9553 13.197 77.3903 11.575 76.3643 11.307C74.9023 10.925 74.4343 9.705 74.2003 5.673L73.9013 0.527L40.1513 0.264L6.40132 0V4.826ZM131.401 48.527C131.401 95.842 131.448 97.027 133.339 97.027C135.229 97.027 135.277 95.837 135.29 48.527C135.303 1.094 135.26 0.0270004 133.352 0.0270004C131.444 0.0270004 131.401 1.099 131.401 48.527ZM401.616 41.777C399.403 47.689 396.655 54.889 395.511 57.777L393.43 63.027H396.916C398.833 63.027 400.401 62.522 400.401 61.905C400.401 59.965 405.736 47.029 406.303 47.595C406.6 47.892 408.011 51.373 409.44 55.331C411.861 62.039 412.253 62.548 415.219 62.84C416.969 63.013 418.401 62.924 418.401 62.642C418.401 61.801 406.278 31.027 405.946 31.027C405.778 31.027 403.829 35.865 401.616 41.777ZM194.593 34.051C190.898 36.304 187.457 42.816 187.423 47.62C187.39 52.214 191.403 59.023 195.41 61.172C199.669 63.456 205.492 63.552 210 61.413C213.799 59.61 214.242 58.095 211.651 55.758C210.125 54.382 209.652 54.362 207.96 55.603C206.892 56.386 204.63 57.027 202.932 57.027C194.403 57.027 190.909 46.649 197.126 39.779C198.945 37.768 204.099 37.477 207.824 39.174C209.767 40.059 210.691 40.031 211.871 39.052C218.123 33.864 202.375 29.307 194.593 34.051ZM219.625 47.277L219.901 62.527H222.819H225.737L225.502 55.277C225.373 51.29 225.652 48.027 226.123 48.027C226.595 48.027 228.682 51.177 230.761 55.027C235.921 64.58 237.694 64.543 242.623 54.777L246.282 47.527L246.342 53.695C246.417 61.474 247.027 63.027 250.008 63.027H252.401V47.527V32.027H249.51C247.041 32.027 246.369 32.649 244.918 36.277C241.983 43.616 237.224 53.027 236.447 53.027C236.037 53.027 233.496 48.312 230.801 42.549C226.05 32.39 225.801 32.07 222.625 32.049L219.349 32.027L219.625 47.277ZM276.556 47.527L276.752 63.027H279.536H282.32L282.611 54.777L282.901 46.527L286.626 53.703C288.675 57.649 290.734 61.115 291.203 61.404C293.528 62.842 296.254 60.454 299.269 54.34C301.045 50.738 302.751 48.044 303.061 48.353C303.37 48.662 303.574 52.09 303.515 55.971L303.408 63.027H306.404H309.401V47.527V32.027H306.531C303.859 32.027 303.326 32.754 298.83 42.527C296.174 48.302 293.717 53.027 293.372 53.027C293.026 53.027 290.423 48.302 287.587 42.527C282.728 32.632 282.256 32.027 279.396 32.027H276.36L276.556 47.527ZM317.401 47.527V63.027H327.901H338.401V60.027V57.027H330.901H323.401V53.527V50.027H329.401C335.102 50.027 335.401 49.905 335.401 47.577C335.401 45.296 335.005 45.106 329.651 44.827C323.966 44.53 323.897 44.49 323.588 41.277L323.274 38.027H330.838H338.401V35.027V32.027H327.901H317.401V47.527ZM344.401 47.636V63.246L351.898 62.867C358.468 62.535 359.732 62.15 362.13 59.752C364.277 57.605 364.844 56.134 364.76 52.925C364.613 47.348 361.976 44.885 355.484 44.261C350.666 43.798 350.401 43.623 350.401 40.9C350.401 38.031 350.409 38.027 356.901 38.027H363.401V35.027V32.027H353.901H344.401V47.636ZM371.204 45.894C371.037 53.521 371.046 60.496 371.224 61.394C371.497 62.773 373.09 63.027 381.474 63.027H391.401V60.027V57.027H384.017H376.634L376.886 53.777C377.137 50.536 377.154 50.526 383.144 50.233C388.776 49.956 389.151 49.785 389.151 47.483C389.151 45.154 388.848 45.027 383.276 45.027H377.401V41.527V38.027H384.401H391.401V35.027V32.027H381.454H371.506L371.204 45.894ZM422.401 47.527V63.027H428.5C439.021 63.027 444.531 58.45 442.908 51.059C442.068 47.235 439.328 45.391 433.151 44.491L428.401 43.8V37.913C428.401 32.04 428.395 32.027 425.401 32.027H422.401V47.527ZM358.364 51.958C359.745 54.538 357.273 57.027 353.33 57.027C350.649 57.027 350.401 56.73 350.401 53.527C350.401 50.2 350.573 50.027 353.866 50.027C356.266 50.027 357.648 50.62 358.364 51.958ZM435.96 51.468C438.808 53.583 436.728 56.439 432.05 56.837C428.621 57.129 428.401 56.974 428.401 54.254C428.401 52.662 428.701 51.06 429.068 50.694C430.215 49.546 433.934 49.964 435.96 51.468Z" fill="black"/>
  </symbol



</svg>


<!--для страницы html-->

	<svg>
		<use xlink:href="img/svg/sprite.svg#"></use>
	</svg>


