<svg width="384" height="352" viewBox="0 0 384 352" fill="none" xmlns="http://www.w3.org/2000/svg">
<path fill-rule="evenodd" clip-rule="evenodd" d="M10.0817 0.346009C8.82168 0.604009 6.25568 2.34901 4.37968 4.22401C-0.945321 9.55001 -1.47032 17.414 3.11068 23.238C6.87668 28.026 10.1297 28.664 30.7827 28.664C41.2177 28.664 49.9707 29.011 50.2327 29.435C50.4947 29.86 52.0907 36.047 53.7787 43.185C55.4677 50.324 61.5837 75.964 67.3707 100.164C82.4467 163.208 83.1767 166.274 90.3457 196.664C93.9137 211.789 97.5947 225.637 98.5237 227.438C99.4537 229.238 101.653 231.601 103.412 232.688C106.549 234.626 108.819 234.664 222.93 234.664H339.25L342.518 232.425C344.315 231.193 346.481 228.606 347.33 226.675C348.18 224.744 354.022 202.239 360.313 176.664C366.604 151.089 374.479 119.154 377.813 105.697C381.146 92.241 383.874 80.159 383.874 78.848C383.874 74.845 380.854 69.815 377.018 67.43L373.374 65.164L230.735 64.897L88.0957 64.631L87.6407 61.897C86.7227 56.389 75.7627 11.078 74.6887 8.35301C74.0797 6.80701 71.9947 4.33201 70.0577 2.85301L66.5337 0.16401L39.4537 0.0210102C24.5597 -0.0569898 11.3427 0.089009 10.0817 0.346009ZM350.39 96.59C350.037 98.199 343.798 123.512 336.526 152.84L323.304 206.164L222.728 206.419L122.152 206.674L121.054 201.419C120.145 197.072 109.692 153.131 98.3357 105.928C96.9817 100.298 95.8737 95.236 95.8737 94.678C95.8737 93.998 137.896 93.664 223.453 93.664H351.033L350.39 96.59ZM117.272 257.553C88.1817 265.881 74.2107 297.268 87.4797 324.479C102.193 354.648 142.103 360.44 165.191 335.756C184.59 315.017 181.118 280.787 158.007 264.923C145.02 256.008 131.324 253.531 117.272 257.553ZM291.986 257.245C268.879 263.459 253.014 286.87 256.597 309.466C258.842 323.629 264.659 333.544 275.567 341.803C291.129 353.584 313.216 354.362 329.793 343.713C346.707 332.847 355.247 311.47 350.3 292.38C343.558 266.36 317.183 250.468 291.986 257.245ZM137.62 286.202C145.491 289.491 149.314 295.903 148.675 304.742C148.03 313.658 143.227 319.507 134.673 321.795C120.246 325.654 106.981 311.145 112.272 297.292C116.248 286.882 127.482 281.967 137.62 286.202ZM314.662 287.905C323.273 293.604 325.503 306.541 319.233 314.424C315.622 318.963 308.709 322.672 303.912 322.642C299.121 322.612 292.852 319.614 289.669 315.832C281.774 306.449 284.502 292.116 295.221 286.665C300.953 283.749 309.175 284.274 314.662 287.905Z" fill="black"/>
</svg>
