<svg width="384" height="385" viewBox="0 0 384 385" fill="none" xmlns="http://www.w3.org/2000/svg">
<path fill-rule="evenodd" clip-rule="evenodd" d="M133.834 1.00475C100.044 4.89275 66.8027 21.5088 42.7807 46.5188C17.8427 72.4828 3.84069 103.211 0.587693 139.113C-2.26031 170.532 5.3197 203.189 21.6557 229.883C42.5207 263.978 73.7017 287.701 111.578 298.299C149.446 308.895 190.196 303.999 225.334 284.631C230.284 281.903 236.695 277.905 239.581 275.746C242.467 273.588 245.547 271.546 246.426 271.209C247.584 270.765 263.486 286.037 304.179 326.672C365.069 387.476 362.301 385.144 371.535 383.411C376.457 382.488 382.439 376.506 383.362 371.584C385.095 362.349 387.436 365.127 326.517 304.122C270.816 248.342 270.349 247.84 271.835 245.427C272.659 244.088 275.387 239.931 277.896 236.188C302.631 199.289 310.059 153.83 298.25 111.627C287.651 73.7458 263.803 42.4098 229.834 21.7288C201.544 4.50476 167.427 -2.86025 133.834 1.00475ZM175.834 34.4048C223.677 44.8048 259.383 80.8288 269.48 128.883C271.924 140.515 271.924 163.251 269.48 174.883C264.382 199.146 253.605 219.168 236.362 236.411C219.119 253.654 199.097 264.431 174.834 269.529C163.202 271.973 140.466 271.973 128.834 269.529C96.9997 262.84 69.6807 244.613 52.4717 218.58C38.2267 197.031 32.3397 177.527 32.3397 151.883C32.3397 136.211 33.8797 126.518 38.5337 112.883C51.0687 76.1628 83.2507 45.9668 120.184 36.2718C137.833 31.6388 159.729 30.9038 175.834 34.4048Z" fill="black"/>
</svg>
