<svg width="448" height="394" viewBox="0 0 448 394" fill="none" xmlns="http://www.w3.org/2000/svg">
<path fill-rule="evenodd" clip-rule="evenodd" d="M6.86773 1.827C-1.35727 6.238 -2.38027 16.994 4.80673 23.502C6.90673 25.403 8.80873 25.524 44.1067 26L81.1997 26.5L104.314 130.5C117.026 187.7 127.733 235.685 128.106 237.133C128.695 239.415 128.369 239.938 125.658 241.062C120.426 243.228 112.043 252.269 108.76 259.284C98.3507 281.529 110.997 308.07 134.659 313.64C137.765 314.371 146.156 315.005 153.306 315.05L166.306 315.132L161.057 316.545C153.286 318.638 148.112 321.599 142.605 327.105C127.488 342.223 127.556 366.846 142.758 382.048C151.623 390.912 165.202 395.388 176.457 393.155C193.938 389.687 206.219 377.429 208.995 360.678C212.322 340.602 199.989 322.038 179.701 316.583C174.876 315.285 183.658 315.132 262.806 315.132C342.524 315.132 350.763 315.278 345.83 316.603C334.772 319.575 325.864 327.092 320.499 337.979C317.55 343.962 317.306 345.227 317.306 354.5C317.306 363.773 317.551 365.039 320.501 371.032C335.221 400.932 376.229 401.156 391.306 371.417C394.099 365.908 394.306 364.741 394.306 354.5C394.306 344.259 394.099 343.092 391.306 337.583C385.804 326.73 375.072 318.249 364.306 316.245C361.374 315.699 363.998 315.367 374.135 315L387.964 314.5L391.385 310.765C394.331 307.548 394.806 306.331 394.806 302C394.806 297.668 394.331 296.453 391.383 293.235L387.96 289.5L264.133 289C167.993 288.612 139.82 288.222 138.134 287.256C132.091 283.797 129.554 276.44 132.362 270.522C135.969 262.922 124.944 263.558 262.762 263C382.007 262.517 386.403 262.434 389.107 260.602C390.648 259.557 392.561 257.44 393.359 255.897C395.419 251.914 447.806 68.212 447.806 64.972C447.806 61.64 444.059 55.94 440.776 54.279C438.831 53.295 403.858 53.026 276.164 53.015L114.023 53L113.485 50.75C113.19 49.513 111.07 39.95 108.774 29.5C106.478 19.05 103.675 8.833 102.544 6.795C98.8307 0.102998 98.0597 0 51.5197 0C13.4837 0 10.0097 0.142 6.86773 1.827ZM416.806 79.864C416.806 80.339 414.099 90.126 410.791 101.614C407.483 113.101 397.486 148.037 388.574 179.25L372.372 236H263.656C160.992 236 154.91 235.903 154.395 234.25C154.094 233.288 146.419 198.975 137.338 158C128.258 117.025 120.589 82.487 120.298 81.25L119.768 79H268.287C351.004 79 416.806 79.383 416.806 79.864ZM177.806 343.891C184.105 348.27 185.203 356.998 180.202 362.941C175.222 368.859 166.897 369.024 161.191 363.319C158.175 360.302 157.806 359.341 157.806 354.5C157.806 349.636 158.169 348.704 161.264 345.608C166.176 340.697 172.296 340.062 177.806 343.891ZM361.397 343.044C371.319 347.847 371.22 361.201 361.227 366.038C354.545 369.273 347.861 366.875 344.286 359.961C341.095 353.79 343.983 346.189 350.826 342.752C355.253 340.527 356.255 340.555 361.397 343.044Z" fill="black"/>
</svg>
