<svg width="446" height="448" viewBox="0 0 446 448" fill="none" xmlns="http://www.w3.org/2000/svg">
<path fill-rule="evenodd" clip-rule="evenodd" d="M77.4493 1.72619C67.6453 4.54819 60.5583 9.97819 39.6103 30.7162C16.9793 53.1202 12.5093 58.4822 7.04231 69.7872C-4.46269 93.5762 -1.78769 130.526 14.4563 172.234C29.2933 210.327 45.0573 238.287 72.0363 274.356C119.631 337.989 178.082 386.922 246.449 420.367C283.792 438.636 313.911 447.124 341.949 447.281C361.999 447.393 375.908 443.226 388.949 433.201C397.448 426.667 437.29 384.619 440.316 378.99C448.401 363.946 447.568 347.454 438.003 333.206C435.843 329.989 419.31 312.683 401.262 294.75C371.575 265.251 367.761 261.805 361.23 258.583C352.494 254.273 343.792 253.042 334.654 254.823C323.194 257.057 318.169 260.639 296.275 282.178L276.101 302.025L265.823 296.335C221.25 271.657 170.231 220.259 148.839 178.481L144.639 170.28L164.044 150.818C176.24 138.586 184.681 129.254 186.765 125.698C195.338 111.072 194.919 93.6672 185.659 79.7522C183.684 76.7842 167.079 59.4492 148.759 41.2292C113.602 6.26519 111.436 4.52019 99.2563 1.34819C91.9133 -0.564806 84.9893 -0.444807 77.4493 1.72619ZM97.8813 24.9102C101.067 26.3562 110.707 35.2732 132.178 56.6332C148.603 72.9752 163.672 88.7122 165.664 91.6032C168.433 95.6252 169.391 98.1402 169.736 102.297C170.474 111.2 168.407 114.113 143.989 138.569C120.273 162.321 119.901 162.875 121.377 172.154C122.126 176.858 133.514 199.28 140.097 209.013C152.791 227.779 169.364 247.163 189.58 266.888C212.874 289.617 237.509 307.935 261.326 320.238C273.049 326.293 277.863 327.188 284.231 324.495C286.001 323.747 296.989 313.684 308.65 302.133C333.638 277.379 337.423 275.042 347.985 277.851C351.96 278.908 356.096 282.671 385.729 312.193C407.17 333.554 419.71 346.796 420.979 349.418C423.54 354.708 423.527 362.051 420.947 367.29C417.968 373.339 375.768 415.745 369.374 419.115C350.693 428.962 318.559 426.055 281.195 411.138C227.133 389.554 171.224 351.195 129.085 306.774C85.0053 260.306 52.5433 210.075 34.4363 160.317C26.5823 138.734 23.8363 126.495 23.2263 110.356C22.6013 93.8172 23.5993 87.8382 28.6983 77.5932C31.8353 71.2912 35.0873 67.5542 53.8753 48.6602C76.8943 25.5112 80.4503 22.9002 88.9493 22.9002C91.4243 22.9002 95.4433 23.8052 97.8813 24.9102Z" fill="black"/>
</svg>
