<svg width="496" height="512" viewBox="0 0 496 512" fill="none" xmlns="http://www.w3.org/2000/svg">
<path fill-rule="evenodd" clip-rule="evenodd" d="M273.614 1.16029C271.538 1.93529 268.482 3.63029 266.824 4.92729C265.165 6.22529 234.685 50.0373 199.091 102.287L134.375 197.287L116.082 197.56L97.7888 197.833L98.3318 194.56C98.6308 192.76 100.45 174.862 102.375 154.787C104.3 134.712 106.129 116.385 106.439 114.061C106.982 109.996 107.276 109.693 114.196 106.075C121.078 102.477 130.343 94.4463 134.492 88.4823L136.443 85.6773L165.903 88.6023C186.455 90.6433 196.014 91.2313 197.516 90.5473C202.428 88.3093 203.069 81.2473 198.622 78.3643C197.127 77.3953 186.533 75.9393 166.609 73.9653C133.468 70.6813 130.979 70.8153 126.047 76.1513C124.453 77.8763 120.82 81.8273 117.972 84.9323C114.338 88.8963 110.599 91.6493 105.421 94.1743C97.6448 97.9663 94.6328 100.862 93.0198 106.099C92.4808 107.853 90.1068 129.2 87.7458 153.537L83.4538 197.787H78.7338H74.0138L74.4698 194.537C74.7208 192.75 77.8479 161.434 81.4199 124.947C84.9909 88.4613 88.3679 57.7593 88.9239 56.7203C90.3899 53.9813 93.1708 52.7863 98.0718 52.7913C100.446 52.7933 127.055 55.2463 157.203 58.2423C195.28 62.0253 212.766 63.4043 214.471 62.7563C216.82 61.8623 218.888 58.3143 218.888 55.1763C218.888 51.6863 214.499 49.1313 207.346 48.4593C203.519 48.0993 177.438 45.5193 149.388 42.7263C121.338 39.9323 96.2748 37.8793 93.6918 38.1643C84.5608 39.1683 76.8178 45.6203 74.4318 54.2153C73.6578 57.0053 70.7278 83.1373 67.9208 112.287C65.1148 141.437 62.6008 166.3 62.3338 167.537C61.8698 169.694 61.4218 169.787 51.5278 169.787C35.3228 169.787 27.7418 173.06 22.2528 182.427C20.2518 185.842 19.4508 188.806 19.0878 194.143L18.6018 201.287L14.0238 204.287C11.5058 205.937 7.97385 209.229 6.17485 211.603C-0.490153 220.401 -0.169155 212.704 0.122845 356.843L0.387844 487.287L2.73985 492.489C5.71385 499.063 13.8449 506.836 20.3909 509.36C25.2678 511.241 30.4449 511.287 236.388 511.287H447.388L452.602 508.929C458.785 506.133 466.148 498.63 469.209 492.004C471.309 487.458 471.399 485.9 471.683 449.037L471.977 410.787L475.683 410.781C484.567 410.768 491.66 406.733 494.511 400.069C495.608 397.507 495.888 388.27 495.888 354.72C495.888 307.815 495.941 308.217 489.108 303.005C486.288 300.855 484.276 300.261 478.748 299.949L471.888 299.561V263.356C471.888 233.035 471.627 226.272 470.283 221.747C468.516 215.794 464.267 209.017 460.392 205.969C458.122 204.184 457.888 203.305 457.888 196.589C457.888 187.718 454.848 180.555 449.048 175.757C444.938 172.357 437.456 169.787 431.67 169.787H427.815L439.475 152.702C445.987 143.16 451.766 133.557 452.564 130.952C455.022 122.929 452.424 113.379 446.23 107.667C443.487 105.138 304.699 10.3023 294.241 3.81129C288.102 0.000294447 279.64 -1.08671 273.614 1.16029ZM301.329 26.0373C393.045 88.3153 435.23 117.406 436.898 119.527C440.342 123.905 439.474 126.583 430.138 140.394C425.326 147.513 414.638 163.321 406.388 175.522L391.388 197.706L385.662 197.747L379.935 197.787L392.256 179.537C399.878 168.246 404.837 159.893 405.26 157.631C405.952 153.926 405.449 152.012 400.828 140.787C399.028 136.413 398.525 133.108 398.373 124.643C398.212 115.659 397.842 113.448 396.001 110.47C394.39 107.864 383.202 99.7023 353.222 79.2663C330.893 64.0443 311.33 51.1403 309.749 50.5893C305.602 49.1433 299.334 50.1093 291.888 53.3413C286.251 55.7873 283.964 56.1893 274.665 56.3633C266.317 56.5183 263.121 56.9893 260.233 58.4873C257.108 60.1093 249.189 71.1753 209.88 128.85L163.236 197.287L157.456 197.59L151.676 197.893L153.621 195.09C154.691 193.548 182.018 153.362 214.348 105.787C246.678 58.2123 274.225 18.2743 275.564 17.0373C280.263 12.6953 283.183 13.7153 301.329 26.0373ZM345.388 91.5933L383.388 117.541L384.023 128.414C384.684 139.74 385.158 141.915 388.825 150.426L391.039 155.566L376.714 176.639L362.388 197.712L349.841 197.75L337.294 197.787L336.142 191.059C334.575 181.913 328.138 169.251 321.299 161.864C314.067 154.053 306.368 149.059 296.106 145.522C289.149 143.124 286.102 142.634 278.062 142.624C267.198 142.609 261.149 143.827 252.388 147.793C235.552 155.413 221.968 172.201 218.739 189.376C218.127 192.627 217.475 195.85 217.289 196.537C217.034 197.479 212.478 197.787 198.821 197.787H180.692L182.54 194.941C183.556 193.376 202.999 164.801 225.746 131.441L267.104 70.7873H276.444C283.654 70.7873 287.565 70.2173 293.586 68.2913C297.877 66.9183 302.039 65.3743 302.834 64.8603C303.662 64.3263 304.945 64.2943 305.834 64.7863C306.689 65.2583 324.488 77.3223 345.388 91.5933ZM286.002 157.792C303.086 160.981 318.101 175.82 321.663 193.037L322.646 197.787H277.221H231.797L232.477 194.037C236.92 169.532 261.115 153.148 286.002 157.792ZM60.5128 187.912C60.1688 189.631 59.8878 192.556 59.8878 194.412V197.787H46.8878H33.8878V194.21C33.8878 191.59 34.6698 189.851 36.8108 187.71C39.6778 184.843 39.9408 184.787 50.4358 184.787H61.1378L60.5128 187.912ZM439.229 186.841C442.055 189.064 444.833 196.374 443.306 197.57C442.801 197.965 434.868 198.145 425.676 197.971L408.964 197.653L413.176 191.241L417.388 184.829L427.003 184.808C435.207 184.79 437.001 185.088 439.229 186.841ZM446.388 214.677C455.082 218.69 456.888 222.848 456.888 238.852V250.787H235.888H14.8878V238.237C14.8878 229.378 15.3028 224.894 16.2988 222.987C18.3018 219.153 23.0998 214.841 26.4918 213.825C28.0848 213.349 122.313 212.93 235.888 212.895C434.614 212.833 442.539 212.9 446.388 214.677ZM456.888 282.787V299.787L419.138 299.802C376.965 299.818 373.596 300.204 361.894 306.353C350.324 312.433 340.79 323.417 335.913 336.287C333.078 343.767 332.058 359.06 333.869 366.919C338.339 386.31 353.177 402.066 372.888 408.35C377.63 409.862 383.799 410.164 417.638 410.542L456.888 410.98V427.884V444.787H277.043C98.0838 444.787 97.1888 444.797 95.3758 446.8C94.3738 447.907 93.5548 450.151 93.5548 451.787C93.5548 453.423 94.3738 455.667 95.3758 456.774C97.1888 458.777 98.0838 458.787 277.043 458.787H456.888L456.872 471.537C456.857 482.904 456.611 484.719 454.601 488.267C453.337 490.498 450.599 493.236 448.368 494.5L444.388 496.754L236.039 496.771C4.00885 496.789 23.7518 497.404 18.0818 489.978C15.5038 486.602 15.3738 485.857 15.0618 472.619L14.7368 458.787H35.8118C55.5548 458.787 57.0148 458.66 58.8878 456.787C59.9988 455.676 60.8878 453.454 60.8878 451.787C60.8878 450.12 59.9988 447.898 58.8878 446.787C57.0148 444.914 55.5548 444.787 35.8878 444.787H14.8878V355.287V265.787H235.888H456.888V282.787ZM479.306 314.394C480.712 314.934 480.888 319.483 480.888 355.394V395.787L432.138 395.763C403.622 395.748 381.607 395.327 379.097 394.748C363.39 391.125 350.785 377.811 347.818 361.709C343.781 339.799 359.973 317.743 382.224 314.844C389.433 313.904 476.974 313.499 479.306 314.394ZM380.882 326.721C375.778 328.274 372.029 330.836 367.513 335.859C359.701 344.548 357.886 356.211 362.664 367.013C371.254 386.432 397.097 390.471 411.347 374.621C417.074 368.252 419.292 361.667 418.663 352.903C417.86 341.721 412.599 333.797 402.688 328.845C397.623 326.314 395.434 325.802 389.978 325.873C386.354 325.92 382.26 326.302 380.882 326.721ZM396.973 341.832C400.967 343.97 404.273 349.776 404.273 354.654C404.273 363.172 398.951 368.9 390.458 369.525C374.53 370.697 368.733 349.396 382.962 341.98C387.504 339.613 392.723 339.558 396.973 341.832Z" fill="black"/>
</svg>
