<svg width="640" height="476" viewBox="0 0 640 476" fill="none" xmlns="http://www.w3.org/2000/svg">
<path fill-rule="evenodd" clip-rule="evenodd" d="M33.8361 0.553855C20.2281 2.04785 8.60214 10.5569 2.64414 23.3829L0.336137 28.3499V200.35V372.35L2.94814 377.85C8.67814 389.912 19.6231 397.961 32.9111 399.881C36.4451 400.392 47.2651 400.819 56.9571 400.83L74.5781 400.85L75.2801 407.983C76.5241 420.601 81.4941 433.537 89.2541 444.35L92.8431 449.35L51.0891 449.85C5.40014 450.397 5.52514 450.381 1.81114 456.39C-2.05186 462.64 0.52114 471.209 7.09514 473.982C11.9411 476.027 627.731 476.027 632.577 473.982C639.151 471.209 641.724 462.64 637.861 456.39C634.605 451.121 632.072 450.46 613.586 450.052C604.374 449.848 596.836 449.498 596.836 449.274C596.836 449.05 598.443 446.762 600.408 444.188C608.146 434.05 613.446 419.719 614.497 406.087L615.104 398.224L620.512 395.392C626.971 392.011 633.085 385.384 636.698 377.85L639.336 372.35L639.625 328.748L639.915 285.146L603.932 213.153C572.236 149.736 567.386 140.604 563.214 136.491C557.179 130.541 550.187 127.153 541.336 125.889C537.424 125.331 511.951 124.881 483.586 124.87L432.836 124.85L432.816 82.5999C432.805 59.3629 432.347 37.1999 431.797 33.3499C430.466 24.0279 426.989 17.2299 420.332 10.9349C413.781 4.73885 408.505 2.22685 399.228 0.885854C392.736 -0.0531456 42.2601 -0.371145 33.8361 0.553855ZM403.563 29.1229L406.336 31.8949L406.594 203.373L406.853 374.85L313.594 374.846L220.336 374.843L218.417 370.178C211.927 354.4 196.303 338.896 179.326 331.388C166.863 325.876 147.172 324.105 133.532 327.268C110.882 332.521 91.1991 348.248 82.2711 368.227L79.3361 374.796L56.5361 374.823C31.0811 374.853 29.3121 374.481 26.4711 368.493C25.4401 366.32 24.8361 362.453 24.8361 358.023V350.997L45.0861 350.674C76.1231 350.178 74.8361 351.837 74.8361 312.317C74.8361 273.844 76.2211 275.579 45.0861 275.048L24.8361 274.703V155.177C24.8361 46.7228 24.9871 35.3339 26.4671 32.2139C29.6921 25.4179 14.6131 25.8989 217.063 26.1359L400.791 26.3499L403.563 29.1229ZM183.336 76.3789C181.136 77.1709 179.26 77.8269 179.168 77.8349C179.075 77.8429 178.062 79.3658 176.918 81.2178C174.302 85.4508 174.263 90.1869 176.811 94.3099C180.701 100.603 176.919 100.321 261.836 100.654C304.461 100.821 341.787 100.665 344.783 100.307C349.133 99.7879 350.894 98.9919 353.533 96.3529C356.404 93.4819 356.836 92.3849 356.836 87.9659C356.836 81.6119 353.4 77.2199 347.336 75.8209C345.07 75.2979 309.527 74.9059 265.336 74.9179C199.975 74.9349 186.688 75.1709 183.336 76.3789ZM131.026 77.2029C127.619 79.0929 124.849 83.8679 124.849 87.8499C124.849 91.8319 127.619 96.6069 131.026 98.4969C132.296 99.2019 135.136 99.7789 137.336 99.7789C142.216 99.7789 145.338 98.1529 147.89 94.2829C151.532 88.7579 149.463 80.4309 143.646 77.2029C140.677 75.5549 133.995 75.5549 131.026 77.2029ZM233.336 126.379C231.136 127.171 229.26 127.827 229.168 127.835C229.075 127.843 228.062 129.366 226.918 131.218C224.302 135.451 224.263 140.187 226.811 144.31C230.61 150.457 229.323 150.32 286.836 150.659C315.711 150.829 341.787 150.673 344.783 150.313C349.129 149.789 350.896 148.99 353.533 146.353C356.404 143.482 356.836 142.385 356.836 137.966C356.836 131.612 353.4 127.22 347.336 125.821C345.136 125.313 319.486 124.907 290.336 124.918C246.743 124.934 236.626 125.194 233.336 126.379ZM544.246 152.958C545.72 154.118 549.149 159.496 551.866 164.911L556.807 174.755L511.526 175.053C461.788 175.379 463.278 175.194 459.1 181.57C457.47 184.057 457.336 188.337 457.336 237.85C457.336 296.889 457.075 294.339 463.555 298.586C466.055 300.225 471.526 300.37 540.579 300.631L614.912 300.911L614.624 334.277C614.355 365.457 614.211 367.78 612.431 369.746C611.383 370.903 610.235 371.85 609.88 371.85C609.525 371.85 608.2 369.713 606.935 367.1C599.439 351.617 584.586 337.713 568.55 331.166C550.425 323.767 528.69 323.835 510.844 331.347C493.568 338.618 478.819 352.917 471.745 369.252L469.336 374.816L451.086 374.833L432.836 374.85V262.85V150.85H487.201C540.981 150.85 541.595 150.873 544.246 152.958ZM588.336 237.85L606.841 274.85H544.839H482.836V237.85V200.85H526.333H569.831L588.336 237.85ZM49.8361 312.85V324.85H37.3361H24.8361V312.85V300.85H37.3361H49.8361V312.85ZM163.112 352.334C186.685 358.474 202.894 383.391 199.13 407.703C196.177 426.782 181.241 443.644 163.112 448.366C155.821 450.265 143.851 450.265 136.56 448.366C112.871 442.196 96.7771 417.319 100.58 392.751C103.468 374.093 118.372 357.168 136.125 352.385C143.049 350.52 156.054 350.495 163.112 352.334ZM553.112 352.334C576.685 358.474 592.894 383.391 589.13 407.703C586.161 426.89 571.354 443.552 553.059 448.292C545.474 450.258 533.945 450.29 526.56 448.366C505.714 442.937 489.949 422.294 489.86 400.31C489.773 378.737 505.512 357.938 526.125 352.385C533.049 350.52 546.054 350.495 553.112 352.334ZM145.162 375.934C139.674 376.967 136.041 378.943 132.143 383.015C124.82 390.662 122.915 401.251 127.223 410.35C131.796 420.006 139.35 424.85 149.836 424.85C160.322 424.85 167.876 420.006 172.449 410.35C180.873 392.561 164.764 372.243 145.162 375.934ZM535.162 375.934C529.674 376.967 526.041 378.943 522.143 383.015C514.82 390.662 512.915 401.251 517.223 410.35C521.796 420.006 529.35 424.85 539.836 424.85C550.322 424.85 557.876 420.006 562.449 410.35C570.873 392.561 554.764 372.243 535.162 375.934ZM465.28 407.983C466.524 420.6 471.493 433.533 479.253 444.35L482.841 449.35L345.175 449.604C269.459 449.743 207.327 449.675 207.104 449.452C206.882 449.229 208.337 446.901 210.339 444.278C217.833 434.461 223.131 420.776 224.392 407.983L225.094 400.85H344.836H464.578L465.28 407.983Z" fill="black"/>
</svg>
