<svg width="444" height="98" viewBox="0 0 444 98" fill="none" xmlns="http://www.w3.org/2000/svg">
<path fill-rule="evenodd" clip-rule="evenodd" d="M6.40132 4.826C6.40132 8.977 6.00132 9.947 3.53632 11.769C1.96032 12.934 0.427318 14.819 0.129318 15.957C-0.402682 17.995 -0.125681 18.027 17.9953 18.027H36.4013V28.119C36.4013 36.697 36.1013 38.593 34.4013 40.754C33.3013 42.153 32.4013 44.525 32.4013 46.027C32.4013 47.529 33.3013 49.901 34.4013 51.3C36.2333 53.628 36.4013 55.357 36.4013 71.828C36.4013 85.302 36.0873 89.929 35.1513 90.277C34.4643 90.532 29.8513 90.603 24.9013 90.434C13.9643 90.061 12.1833 90.484 12.5933 93.363C12.8993 95.514 13.0683 95.529 40.1763 95.793C64.2943 96.028 67.5223 95.876 68.0593 94.476C69.2403 91.398 66.5903 90.528 55.8893 90.482C50.1623 90.457 45.1953 90.154 44.8503 89.81C44.5063 89.465 44.1583 81.386 44.0773 71.855C43.9393 55.507 44.0573 54.329 46.1623 51.027C48.9383 46.673 48.9843 44.038 46.3443 40.681C44.1203 37.854 43.2423 30.617 44.1483 22.58L44.6613 18.027H63.0573H81.4523L79.8413 14.911C78.9553 13.197 77.3903 11.575 76.3643 11.307C74.9023 10.925 74.4343 9.705 74.2003 5.673L73.9013 0.527L40.1513 0.264L6.40132 0V4.826ZM131.401 48.527C131.401 95.842 131.448 97.027 133.339 97.027C135.229 97.027 135.277 95.837 135.29 48.527C135.303 1.094 135.26 0.0270004 133.352 0.0270004C131.444 0.0270004 131.401 1.099 131.401 48.527ZM401.616 41.777C399.403 47.689 396.655 54.889 395.511 57.777L393.43 63.027H396.916C398.833 63.027 400.401 62.522 400.401 61.905C400.401 59.965 405.736 47.029 406.303 47.595C406.6 47.892 408.011 51.373 409.44 55.331C411.861 62.039 412.253 62.548 415.219 62.84C416.969 63.013 418.401 62.924 418.401 62.642C418.401 61.801 406.278 31.027 405.946 31.027C405.778 31.027 403.829 35.865 401.616 41.777ZM194.593 34.051C190.898 36.304 187.457 42.816 187.423 47.62C187.39 52.214 191.403 59.023 195.41 61.172C199.669 63.456 205.492 63.552 210 61.413C213.799 59.61 214.242 58.095 211.651 55.758C210.125 54.382 209.652 54.362 207.96 55.603C206.892 56.386 204.63 57.027 202.932 57.027C194.403 57.027 190.909 46.649 197.126 39.779C198.945 37.768 204.099 37.477 207.824 39.174C209.767 40.059 210.691 40.031 211.871 39.052C218.123 33.864 202.375 29.307 194.593 34.051ZM219.625 47.277L219.901 62.527H222.819H225.737L225.502 55.277C225.373 51.29 225.652 48.027 226.123 48.027C226.595 48.027 228.682 51.177 230.761 55.027C235.921 64.58 237.694 64.543 242.623 54.777L246.282 47.527L246.342 53.695C246.417 61.474 247.027 63.027 250.008 63.027H252.401V47.527V32.027H249.51C247.041 32.027 246.369 32.649 244.918 36.277C241.983 43.616 237.224 53.027 236.447 53.027C236.037 53.027 233.496 48.312 230.801 42.549C226.05 32.39 225.801 32.07 222.625 32.049L219.349 32.027L219.625 47.277ZM276.556 47.527L276.752 63.027H279.536H282.32L282.611 54.777L282.901 46.527L286.626 53.703C288.675 57.649 290.734 61.115 291.203 61.404C293.528 62.842 296.254 60.454 299.269 54.34C301.045 50.738 302.751 48.044 303.061 48.353C303.37 48.662 303.574 52.09 303.515 55.971L303.408 63.027H306.404H309.401V47.527V32.027H306.531C303.859 32.027 303.326 32.754 298.83 42.527C296.174 48.302 293.717 53.027 293.372 53.027C293.026 53.027 290.423 48.302 287.587 42.527C282.728 32.632 282.256 32.027 279.396 32.027H276.36L276.556 47.527ZM317.401 47.527V63.027H327.901H338.401V60.027V57.027H330.901H323.401V53.527V50.027H329.401C335.102 50.027 335.401 49.905 335.401 47.577C335.401 45.296 335.005 45.106 329.651 44.827C323.966 44.53 323.897 44.49 323.588 41.277L323.274 38.027H330.838H338.401V35.027V32.027H327.901H317.401V47.527ZM344.401 47.636V63.246L351.898 62.867C358.468 62.535 359.732 62.15 362.13 59.752C364.277 57.605 364.844 56.134 364.76 52.925C364.613 47.348 361.976 44.885 355.484 44.261C350.666 43.798 350.401 43.623 350.401 40.9C350.401 38.031 350.409 38.027 356.901 38.027H363.401V35.027V32.027H353.901H344.401V47.636ZM371.204 45.894C371.037 53.521 371.046 60.496 371.224 61.394C371.497 62.773 373.09 63.027 381.474 63.027H391.401V60.027V57.027H384.017H376.634L376.886 53.777C377.137 50.536 377.154 50.526 383.144 50.233C388.776 49.956 389.151 49.785 389.151 47.483C389.151 45.154 388.848 45.027 383.276 45.027H377.401V41.527V38.027H384.401H391.401V35.027V32.027H381.454H371.506L371.204 45.894ZM422.401 47.527V63.027H428.5C439.021 63.027 444.531 58.45 442.908 51.059C442.068 47.235 439.328 45.391 433.151 44.491L428.401 43.8V37.913C428.401 32.04 428.395 32.027 425.401 32.027H422.401V47.527ZM358.364 51.958C359.745 54.538 357.273 57.027 353.33 57.027C350.649 57.027 350.401 56.73 350.401 53.527C350.401 50.2 350.573 50.027 353.866 50.027C356.266 50.027 357.648 50.62 358.364 51.958ZM435.96 51.468C438.808 53.583 436.728 56.439 432.05 56.837C428.621 57.129 428.401 56.974 428.401 54.254C428.401 52.662 428.701 51.06 429.068 50.694C430.215 49.546 433.934 49.964 435.96 51.468Z" fill="black"/>
</svg>
